<svg xmlns="http://www.w3.org/2000/svg">
  <symbol id="spinner" viewBox="0 0 28 28">
    <path
      d="M8.219 21.781c0 1.094-.89 2-2 2-1.094 0-2-.906-2-2 0-1.11.906-2 2-2 1.11 0 2 .89 2 2zM16 25c0 1.11-.89 2-2 2s-2-.89-2-2 .89-2 2-2 2 .89 2 2zM5 14c0 1.11-.89 2-2 2s-2-.89-2-2 .89-2 2-2 2 .89 2 2zm18.781 7.781c0 1.094-.906 2-2 2-1.11 0-2-.906-2-2 0-1.11.89-2 2-2 1.094 0 2 .89 2 2zM8.72 6.22c0 1.375-1.125 2.5-2.5 2.5s-2.5-1.125-2.5-2.5 1.125-2.5 2.5-2.5 2.5 1.125 2.5 2.5zM27 14c0 1.11-.89 2-2 2s-2-.89-2-2 .89-2 2-2 2 .89 2 2zM17 3a3 3 0 1 1-6.002-.002A3 3 0 0 1 17 3zm8.281 3.219c0 1.937-1.578 3.5-3.5 3.5a3.494 3.494 0 0 1-3.5-3.5c0-1.922 1.563-3.5 3.5-3.5 1.922 0 3.5 1.578 3.5 3.5z"
      fill="currentColor"/>
  </symbol>
  <symbol id="search" viewBox="0 0 24 24">
    <path
      d="M16.041 15.856a.993.993 0 0 0-.186.186A6.97 6.97 0 0 1 11 18c-1.933 0-3.682-.782-4.95-2.05S4 12.933 4 11s.782-3.682 2.05-4.95S9.067 4 11 4s3.682.782 4.95 2.05S18 9.067 18 11a6.971 6.971 0 0 1-1.959 4.856zm5.666 4.437-3.675-3.675A8.967 8.967 0 0 0 20 11c0-2.485-1.008-4.736-2.636-6.364S13.485 2 11 2 6.264 3.008 4.636 4.636 2 8.515 2 11s1.008 4.736 2.636 6.364S8.515 20 11 20a8.967 8.967 0 0 0 5.618-1.968l3.675 3.675a.999.999 0 1 0 1.414-1.414z"
      fill="currentColor"/>
  </symbol>
</svg>
