<svg xmlns="http://www.w3.org/2000/svg" width="28" height="28" data-code="61712" data-tags="spinner"><path d="M8.219 21.781c0 1.094-.89 2-2 2-1.094 0-2-.906-2-2 0-1.11.906-2 2-2 1.11 0 2 .89 2 2zM16 25c0 1.11-.89 2-2 2s-2-.89-2-2 .89-2 2-2 2 .89 2 2zM5 14c0 1.11-.89 2-2 2s-2-.89-2-2 .89-2 2-2 2 .89 2 2zm18.781 7.781c0 1.094-.906 2-2 2-1.11 0-2-.906-2-2 0-1.11.89-2 2-2 1.094 0 2 .89 2 2zM8.72 6.22c0 1.375-1.125 2.5-2.5 2.5s-2.5-1.125-2.5-2.5 1.125-2.5 2.5-2.5 2.5 1.125 2.5 2.5zM27 14c0 1.11-.89 2-2 2s-2-.89-2-2 .89-2 2-2 2 .89 2 2zM17 3a3 3 0 1 1-6.002-.002A3 3 0 0 1 17 3zm8.281 3.219c0 1.937-1.578 3.5-3.5 3.5a3.494 3.494 0 0 1-3.5-3.5c0-1.922 1.563-3.5 3.5-3.5 1.922 0 3.5 1.578 3.5 3.5z" fill="#444"/></svg>